<svg width="28" height="29" viewBox="0 0 28 29" fill="none" xmlns="http://www.w3.org/2000/svg">
<path d="M12.834 20.1099H15.1673V15.4432H19.834V13.1099H15.1673V8.4432H12.834V13.1099H8.16732V15.4432H12.834V20.1099ZM14.0007 25.9432C12.3868 25.9432 10.8701 25.6369 9.45065 25.0244C8.03121 24.4119 6.79648 23.5807 5.74648 22.5307C4.69648 21.4807 3.86523 20.246 3.25273 18.8265C2.64023 17.4071 2.33398 15.8904 2.33398 14.2765C2.33398 12.6626 2.64023 11.146 3.25273 9.72653C3.86523 8.30709 4.69648 7.07236 5.74648 6.02236C6.79648 4.97236 8.03121 4.14111 9.45065 3.52861C10.8701 2.91611 12.3868 2.60986 14.0007 2.60986C15.6145 2.60986 17.1312 2.91611 18.5506 3.52861C19.9701 4.14111 21.2048 4.97236 22.2548 6.02236C23.3048 7.07236 24.1361 8.30709 24.7486 9.72653C25.3611 11.146 25.6673 12.6626 25.6673 14.2765C25.6673 15.8904 25.3611 17.4071 24.7486 18.8265C24.1361 20.246 23.3048 21.4807 22.2548 22.5307C21.2048 23.5807 19.9701 24.4119 18.5506 25.0244C17.1312 25.6369 15.6145 25.9432 14.0007 25.9432Z" fill="#6D6D6D"/>
</svg>
