<svg width="23" height="23" viewBox="0 0 23 23" fill="currentColor" xmlns="http://www.w3.org/2000/svg">
<path d="M16.5 0.25C18.1576 0.25 19.7473 0.90848 20.9194 2.08058C22.0915 3.25269 22.75 4.8424 22.75 6.5V16.5C22.75 18.1576 22.0915 19.7473 20.9194 20.9194C19.7473 22.0915 18.1576 22.75 16.5 22.75H6.5C4.8424 22.75 3.25269 22.0915 2.08058 20.9194C0.90848 19.7473 0.25 18.1576 0.25 16.5V6.5C0.25 4.8424 0.90848 3.25269 2.08058 2.08058C3.25269 0.90848 4.8424 0.25 6.5 0.25H16.5ZM11.5 6.5C10.1739 6.5 8.90215 7.02678 7.96447 7.96447C7.02678 8.90215 6.5 10.1739 6.5 11.5C6.5 12.8261 7.02678 14.0979 7.96447 15.0355C8.90215 15.9732 10.1739 16.5 11.5 16.5C12.8261 16.5 14.0979 15.9732 15.0355 15.0355C15.9732 14.0979 16.5 12.8261 16.5 11.5C16.5 10.1739 15.9732 8.90215 15.0355 7.96447C14.0979 7.02678 12.8261 6.5 11.5 6.5ZM11.5 9C12.163 9 12.7989 9.26339 13.2678 9.73223C13.7366 10.2011 14 10.837 14 11.5C14 12.163 13.7366 12.7989 13.2678 13.2678C12.7989 13.7366 12.163 14 11.5 14C10.837 14 10.2011 13.7366 9.73223 13.2678C9.26339 12.7989 9 12.163 9 11.5C9 10.837 9.26339 10.2011 9.73223 9.73223C10.2011 9.26339 10.837 9 11.5 9ZM17.125 4.625C16.7935 4.625 16.4755 4.7567 16.2411 4.99112C16.0067 5.22554 15.875 5.54348 15.875 5.875C15.875 6.20652 16.0067 6.52446 16.2411 6.75888C16.4755 6.9933 16.7935 7.125 17.125 7.125C17.4565 7.125 17.7745 6.9933 18.0089 6.75888C18.2433 6.52446 18.375 6.20652 18.375 5.875C18.375 5.54348 18.2433 5.22554 18.0089 4.99112C17.7745 4.7567 17.4565 4.625 17.125 4.625Z" fill="#6D6D6D"/>
</svg>
