<svg width="41" height="41" viewBox="0 0 41 41" fill="currentColor" xmlns="http://www.w3.org/2000/svg">
<g clip-path="url(#clip0_352_2970)">
<path fill-rule="evenodd" clip-rule="evenodd" d="M28 9.25C28.9946 9.25 29.9484 9.64509 30.6517 10.3483C31.3549 11.0516 31.75 12.0054 31.75 13V28C31.75 28.9946 31.3549 29.9484 30.6517 30.6517C29.9484 31.3549 28.9946 31.75 28 31.75H13C12.0054 31.75 11.0516 31.3549 10.3483 30.6517C9.64509 29.9484 9.25 28.9946 9.25 28V13C9.25 12.0054 9.64509 11.0516 10.3483 10.3483C11.0516 9.64509 12.0054 9.25 13 9.25H28ZM15.5 18C15.1685 18 14.8505 18.1317 14.6161 18.3661C14.3817 18.6005 14.25 18.9185 14.25 19.25V25.5C14.25 25.8315 14.3817 26.1495 14.6161 26.3839C14.8505 26.6183 15.1685 26.75 15.5 26.75C15.8315 26.75 16.1495 26.6183 16.3839 26.3839C16.6183 26.1495 16.75 25.8315 16.75 25.5V19.25C16.75 18.9185 16.6183 18.6005 16.3839 18.3661C16.1495 18.1317 15.8315 18 15.5 18ZM19.25 16.75C18.9185 16.75 18.6005 16.8817 18.3661 17.1161C18.1317 17.3505 18 17.6685 18 18V25.5C18 25.8315 18.1317 26.1495 18.3661 26.3839C18.6005 26.6183 18.9185 26.75 19.25 26.75C19.5815 26.75 19.8995 26.6183 20.1339 26.3839C20.3683 26.1495 20.5 25.8315 20.5 25.5V20.925C20.8813 20.495 21.525 19.99 22.2412 19.6838C22.6575 19.5063 23.2837 19.4338 23.7188 19.5712C23.8631 19.6079 23.9916 19.6903 24.085 19.8062C24.15 19.8937 24.25 20.0887 24.25 20.5V25.5C24.25 25.8315 24.3817 26.1495 24.6161 26.3839C24.8505 26.6183 25.1685 26.75 25.5 26.75C25.8315 26.75 26.1495 26.6183 26.3839 26.3839C26.6183 26.1495 26.75 25.8315 26.75 25.5V20.5C26.75 19.6625 26.5375 18.9175 26.095 18.32C25.6878 17.7782 25.1179 17.3809 24.4688 17.1862C23.3413 16.8325 22.0925 17.0287 21.2588 17.3862C20.9916 17.5006 20.7316 17.6308 20.48 17.7762C20.4276 17.4882 20.2758 17.2277 20.051 17.0402C19.8262 16.8527 19.5427 16.75 19.25 16.75ZM15.5 14.25C15.1685 14.25 14.8505 14.3817 14.6161 14.6161C14.3817 14.8505 14.25 15.1685 14.25 15.5C14.25 15.8315 14.3817 16.1495 14.6161 16.3839C14.8505 16.6183 15.1685 16.75 15.5 16.75C15.8315 16.75 16.1495 16.6183 16.3839 16.3839C16.6183 16.1495 16.75 15.8315 16.75 15.5C16.75 15.1685 16.6183 14.8505 16.3839 14.6161C16.1495 14.3817 15.8315 14.25 15.5 14.25Z" fill="#6D6D6D"/>
</g>
<defs>
<clipPath id="clip0_352_2970">
<rect width="30" height="30" fill="white" transform="translate(5.5 5.5)"/>
</clipPath>
</defs>
</svg>
