<svg width="41" height="41" viewBox="0 0 41 41" fill="none" xmlns="http://www.w3.org/2000/svg">
<g clip-path="url(#clip0_352_2969)">
<path d="M22.375 32.86C28.3888 31.955 33 26.7663 33 20.5C33 13.5963 27.4038 8 20.5 8C13.5963 8 8 13.5963 8 20.5C8 26.7663 12.6113 31.9563 18.625 32.86V24.25H16.75C16.2527 24.25 15.7758 24.0525 15.4242 23.7008C15.0725 23.3492 14.875 22.8723 14.875 22.375C14.875 21.8777 15.0725 21.4008 15.4242 21.0492C15.7758 20.6975 16.2527 20.5 16.75 20.5H18.625V18C18.625 16.8397 19.0859 15.7269 19.9064 14.9064C20.7269 14.0859 21.8397 13.625 23 13.625H23.625C24.1223 13.625 24.5992 13.8225 24.9508 14.1742C25.3025 14.5258 25.5 15.0027 25.5 15.5C25.5 15.9973 25.3025 16.4742 24.9508 16.8258C24.5992 17.1775 24.1223 17.375 23.625 17.375H23C22.8342 17.375 22.6753 17.4408 22.5581 17.5581C22.4408 17.6753 22.375 17.8342 22.375 18V20.5H24.25C24.7473 20.5 25.2242 20.6975 25.5758 21.0492C25.9275 21.4008 26.125 21.8777 26.125 22.375C26.125 22.8723 25.9275 23.3492 25.5758 23.7008C25.2242 24.0525 24.7473 24.25 24.25 24.25H22.375V32.86Z" fill="currentColor"/>
</g>
<defs>
<clipPath id="clip0_352_2969">
<rect width="30" height="30" fill="white" transform="translate(5.5 5.5)"/>
</clipPath>
</defs>
</svg>
