<svg xmlns="http://www.w3.org/2000/svg" width="31" height="31" viewBox="0 0 31 31" fill="none">
  <path d="M17.375 27.6364C23.3888 26.7314 28 21.5426 28 15.2764C28 8.37262 22.4038 2.77637 15.5 2.77637C8.59625 2.77637 3 8.37262 3 15.2764C3 21.5426 7.61125 26.7326 13.625 27.6364V19.0264H11.75C11.2527 19.0264 10.7758 18.8288 10.4242 18.4772C10.0725 18.1256 9.875 17.6486 9.875 17.1514C9.875 16.6541 10.0725 16.1772 10.4242 15.8255C10.7758 15.4739 11.2527 15.2764 11.75 15.2764H13.625V12.7764C13.625 11.616 14.0859 10.5032 14.9064 9.68278C15.7269 8.8623 16.8397 8.40137 18 8.40137H18.625C19.1223 8.40137 19.5992 8.59891 19.9508 8.95054C20.3025 9.30217 20.5 9.77909 20.5 10.2764C20.5 10.7736 20.3025 11.2506 19.9508 11.6022C19.5992 11.9538 19.1223 12.1514 18.625 12.1514H18C17.8342 12.1514 17.6753 12.2172 17.5581 12.3344C17.4408 12.4516 17.375 12.6106 17.375 12.7764V15.2764H19.25C19.7473 15.2764 20.2242 15.4739 20.5758 15.8255C20.9275 16.1772 21.125 16.6541 21.125 17.1514C21.125 17.6486 20.9275 18.1256 20.5758 18.4772C20.2242 18.8288 19.7473 19.0264 19.25 19.0264H17.375V27.6364Z" fill="currentColor"/>
</svg>