<svg xmlns="http://www.w3.org/2000/svg" width="31" height="31" viewBox="0 0 31 31" fill="none">
  <path d="M20.5 4.02637C22.1576 4.02637 23.7473 4.68485 24.9194 5.85695C26.0915 7.02905 26.75 8.61876 26.75 10.2764V20.2764C26.75 21.934 26.0915 23.5237 24.9194 24.6958C23.7473 25.8679 22.1576 26.5264 20.5 26.5264H10.5C8.8424 26.5264 7.25269 25.8679 6.08058 24.6958C4.90848 23.5237 4.25 21.934 4.25 20.2764V10.2764C4.25 8.61876 4.90848 7.02905 6.08058 5.85695C7.25269 4.68485 8.8424 4.02637 10.5 4.02637H20.5ZM15.5 10.2764C14.1739 10.2764 12.9021 10.8032 11.9645 11.7408C11.0268 12.6785 10.5 13.9503 10.5 15.2764C10.5 16.6024 11.0268 17.8742 11.9645 18.8119C12.9021 19.7496 14.1739 20.2764 15.5 20.2764C16.8261 20.2764 18.0979 19.7496 19.0355 18.8119C19.9732 17.8742 20.5 16.6024 20.5 15.2764C20.5 13.9503 19.9732 12.6785 19.0355 11.7408C18.0979 10.8032 16.8261 10.2764 15.5 10.2764ZM15.5 12.7764C16.163 12.7764 16.7989 13.0398 17.2678 13.5086C17.7366 13.9774 18 14.6133 18 15.2764C18 15.9394 17.7366 16.5753 17.2678 17.0441C16.7989 17.513 16.163 17.7764 15.5 17.7764C14.837 17.7764 14.2011 17.513 13.7322 17.0441C13.2634 16.5753 13 15.9394 13 15.2764C13 14.6133 13.2634 13.9774 13.7322 13.5086C14.2011 13.0398 14.837 12.7764 15.5 12.7764ZM21.125 8.40137C20.7935 8.40137 20.4755 8.53306 20.2411 8.76748C20.0067 9.0019 19.875 9.31985 19.875 9.65137C19.875 9.98289 20.0067 10.3008 20.2411 10.5353C20.4755 10.7697 20.7935 10.9014 21.125 10.9014C21.4565 10.9014 21.7745 10.7697 22.0089 10.5353C22.2433 10.3008 22.375 9.98289 22.375 9.65137C22.375 9.31985 22.2433 9.0019 22.0089 8.76748C21.7745 8.53306 21.4565 8.40137 21.125 8.40137Z" fill="currentColor"/>
</svg>