<svg xmlns="http://www.w3.org/2000/svg" width="31" height="31" viewBox="0 0 31 31" fill="none">
  <path fill-rule="evenodd" clip-rule="evenodd" d="M23 4.02637C23.9946 4.02637 24.9484 4.42146 25.6517 5.12472C26.3549 5.82798 26.75 6.78181 26.75 7.77637V22.7764C26.75 23.7709 26.3549 24.7248 25.6517 25.428C24.9484 26.1313 23.9946 26.5264 23 26.5264H8C7.00544 26.5264 6.05161 26.1313 5.34835 25.428C4.64509 24.7248 4.25 23.7709 4.25 22.7764V7.77637C4.25 6.78181 4.64509 5.82798 5.34835 5.12472C6.05161 4.42146 7.00544 4.02637 8 4.02637H23ZM10.5 12.7764C10.1685 12.7764 9.85054 12.9081 9.61612 13.1425C9.3817 13.3769 9.25 13.6948 9.25 14.0264V20.2764C9.25 20.6079 9.3817 20.9258 9.61612 21.1603C9.85054 21.3947 10.1685 21.5264 10.5 21.5264C10.8315 21.5264 11.1495 21.3947 11.3839 21.1603C11.6183 20.9258 11.75 20.6079 11.75 20.2764V14.0264C11.75 13.6948 11.6183 13.3769 11.3839 13.1425C11.1495 12.9081 10.8315 12.7764 10.5 12.7764ZM14.25 11.5264C13.9185 11.5264 13.6005 11.6581 13.3661 11.8925C13.1317 12.1269 13 12.4448 13 12.7764V20.2764C13 20.6079 13.1317 20.9258 13.3661 21.1603C13.6005 21.3947 13.9185 21.5264 14.25 21.5264C14.5815 21.5264 14.8995 21.3947 15.1339 21.1603C15.3683 20.9258 15.5 20.6079 15.5 20.2764V15.7014C15.8813 15.2714 16.525 14.7664 17.2412 14.4601C17.6575 14.2826 18.2837 14.2101 18.7188 14.3476C18.8631 14.3842 18.9916 14.4667 19.085 14.5826C19.15 14.6701 19.25 14.8651 19.25 15.2764V20.2764C19.25 20.6079 19.3817 20.9258 19.6161 21.1603C19.8505 21.3947 20.1685 21.5264 20.5 21.5264C20.8315 21.5264 21.1495 21.3947 21.3839 21.1603C21.6183 20.9258 21.75 20.6079 21.75 20.2764V15.2764C21.75 14.4389 21.5375 13.6939 21.095 13.0964C20.6878 12.5546 20.1179 12.1573 19.4688 11.9626C18.3413 11.6089 17.0925 11.8051 16.2588 12.1626C15.9916 12.2769 15.7316 12.4072 15.48 12.5526C15.4276 12.2646 15.2758 12.0041 15.051 11.8166C14.8262 11.629 14.5427 11.5263 14.25 11.5264ZM10.5 9.02637C10.1685 9.02637 9.85054 9.15806 9.61612 9.39248C9.3817 9.6269 9.25 9.94485 9.25 10.2764C9.25 10.6079 9.3817 10.9258 9.61612 11.1603C9.85054 11.3947 10.1685 11.5264 10.5 11.5264C10.8315 11.5264 11.1495 11.3947 11.3839 11.1603C11.6183 10.9258 11.75 10.6079 11.75 10.2764C11.75 9.94485 11.6183 9.6269 11.3839 9.39248C11.1495 9.15806 10.8315 9.02637 10.5 9.02637Z" fill="currentColor"/>
</svg>