<svg width="20" height="20" viewBox="0 0 20 20" fill="none" xmlns="http://www.w3.org/2000/svg">
  <g clip-path="url(#clip0_308_490)">
    <path d="M8.3975 2.17833C8.67917 1.545 9.54667 1.51417 9.88667 2.08333L9.93583 2.17833L10.8042 4.1325C11.5624 5.83826 12.8233 7.27189 14.4183 8.24167L14.6867 8.39917L16.2283 9.26583C16.3509 9.33445 16.4543 9.43264 16.5292 9.55147C16.6041 9.67029 16.6481 9.80597 16.6571 9.94614C16.6661 10.0863 16.6399 10.2265 16.5809 10.354C16.5219 10.4814 16.4319 10.5921 16.3192 10.6758L16.2292 10.7342L14.6867 11.6008C13.0595 12.5161 11.7506 13.9064 10.935 15.5858L10.8042 15.8675L9.93583 17.8217C9.65417 18.455 8.78667 18.4858 8.44667 17.9167L8.3975 17.8217L7.52917 15.8675C6.77094 14.1617 5.51001 12.7281 3.915 11.7583L3.64667 11.6008L2.105 10.7342C1.98244 10.6656 1.879 10.5674 1.80411 10.4485C1.72922 10.3297 1.68525 10.194 1.67622 10.0539C1.66719 9.9137 1.69338 9.7735 1.75241 9.64604C1.81144 9.51859 1.90142 9.40794 2.01417 9.32417L2.10417 9.26583L3.64667 8.39917C5.27385 7.48387 6.58276 6.09355 7.39833 4.41417L7.52917 4.1325L8.3975 2.17833ZM16.0175 1.7675C16.4312 2.70717 17.1366 3.48855 18.0292 3.99583C18.1625 4.07083 18.1625 4.2625 18.0292 4.3375C17.1361 4.84486 16.4304 5.62657 16.0167 6.56667C16.0008 6.60206 15.9751 6.63211 15.9426 6.6532C15.91 6.67429 15.8721 6.68551 15.8333 6.68551C15.7946 6.68551 15.7566 6.67429 15.7241 6.6532C15.6916 6.63211 15.6658 6.60206 15.65 6.56667C15.2361 5.62688 14.5304 4.84548 13.6375 4.33833C13.6074 4.32114 13.5823 4.29628 13.5649 4.26628C13.5475 4.23628 13.5383 4.2022 13.5383 4.1675C13.5383 4.1328 13.5475 4.09872 13.5649 4.06872C13.5823 4.03872 13.6074 4.01386 13.6375 3.99667C14.5307 3.48909 15.2364 2.70708 15.65 1.76667C15.6658 1.73128 15.6916 1.70122 15.7241 1.68014C15.7566 1.65905 15.7946 1.64783 15.8333 1.64783C15.8721 1.64783 15.91 1.65905 15.9426 1.68014C15.9751 1.70122 16.0008 1.73128 16.0167 1.76667L16.0175 1.7675Z" fill="#272727"/>
  </g>
  <defs>
    <clipPath id="clip0_308_490">
      <rect width="20" height="20" fill="white"/>
    </clipPath>
  </defs>
</svg>
