<svg width="35" height="35" viewBox="0 0 35 35" fill="none" xmlns="http://www.w3.org/2000/svg">
<path d="M1.45825 30.6251L17.4999 2.91675L33.5416 30.6251H1.45825ZM17.4999 26.2501C17.9131 26.2501 18.2595 26.1103 18.539 25.8308C18.8185 25.5513 18.9583 25.2049 18.9583 24.7917C18.9583 24.3786 18.8185 24.0322 18.539 23.7527C18.2595 23.4732 17.9131 23.3334 17.4999 23.3334C17.0867 23.3334 16.7404 23.4732 16.4609 23.7527C16.1813 24.0322 16.0416 24.3786 16.0416 24.7917C16.0416 25.2049 16.1813 25.5513 16.4609 25.8308C16.7404 26.1103 17.0867 26.2501 17.4999 26.2501ZM16.0416 21.8751H18.9583V14.5834H16.0416V21.8751Z" fill="#A30E2C"/>
</svg>
