<svg width="16" height="17" viewBox="0 0 16 17" fill="none" xmlns="http://www.w3.org/2000/svg">
<path d="M0.666626 14.5L7.99996 1.83337L15.3333 14.5H0.666626ZM7.99996 12.5C8.18885 12.5 8.34718 12.4362 8.47496 12.3084C8.60274 12.1806 8.66663 12.0223 8.66663 11.8334C8.66663 11.6445 8.60274 11.4862 8.47496 11.3584C8.34718 11.2306 8.18885 11.1667 7.99996 11.1667C7.81107 11.1667 7.65274 11.2306 7.52496 11.3584C7.39718 11.4862 7.33329 11.6445 7.33329 11.8334C7.33329 12.0223 7.39718 12.1806 7.52496 12.3084C7.65274 12.4362 7.81107 12.5 7.99996 12.5ZM7.33329 10.5H8.66663V7.16671H7.33329V10.5Z" fill="#A30E2C"/>
</svg>
