<svg width="20" height="20" viewBox="0 0 20 20" fill="none" xmlns="http://www.w3.org/2000/svg">
<path d="M10 13.3333C11.0417 13.3333 11.9271 12.9688 12.6563 12.2396C13.3855 11.5104 13.75 10.625 13.75 9.58333C13.75 8.54167 13.3855 7.65625 12.6563 6.92708C11.9271 6.19792 11.0417 5.83333 10 5.83333C8.95837 5.83333 8.07296 6.19792 7.34379 6.92708C6.61462 7.65625 6.25004 8.54167 6.25004 9.58333C6.25004 10.625 6.61462 11.5104 7.34379 12.2396C8.07296 12.9688 8.95837 13.3333 10 13.3333ZM10 11.8333C9.37504 11.8333 8.84379 11.6146 8.40629 11.1771C7.96879 10.7396 7.75004 10.2083 7.75004 9.58333C7.75004 8.95833 7.96879 8.42708 8.40629 7.98958C8.84379 7.55208 9.37504 7.33333 10 7.33333C10.625 7.33333 11.1563 7.55208 11.5938 7.98958C12.0313 8.42708 12.25 8.95833 12.25 9.58333C12.25 10.2083 12.0313 10.7396 11.5938 11.1771C11.1563 11.6146 10.625 11.8333 10 11.8333ZM10 15.8333C7.97226 15.8333 6.12504 15.2674 4.45837 14.1354C2.79171 13.0035 1.58337 11.4861 0.833374 9.58333C1.58337 7.68056 2.79171 6.1632 4.45837 5.03125C6.12504 3.89931 7.97226 3.33333 10 3.33333C12.0278 3.33333 13.875 3.89931 15.5417 5.03125C17.2084 6.1632 18.4167 7.68056 19.1667 9.58333C18.4167 11.4861 17.2084 13.0035 15.5417 14.1354C13.875 15.2674 12.0278 15.8333 10 15.8333Z" fill="currentColor"/>
</svg>
