<svg width="20" height="20" viewBox="0 0 20 20" fill="none" xmlns="http://www.w3.org/2000/svg">
<path d="M16.5 18.8333L13 15.375C12.5139 15.5278 12.0243 15.6424 11.5313 15.7188C11.0382 15.7951 10.5278 15.8333 10 15.8333C7.90282 15.8333 6.03476 15.2535 4.39587 14.0938C2.75699 12.934 1.56949 11.4306 0.833374 9.58333C1.12504 8.84722 1.4931 8.1632 1.93754 7.53125C2.38199 6.89931 2.88893 6.33333 3.45837 5.83333L1.16671 3.5L2.33337 2.33333L17.6667 17.6667L16.5 18.8333ZM10 13.3333C10.1528 13.3333 10.2952 13.3264 10.4271 13.3125C10.5591 13.2986 10.7014 13.2708 10.8542 13.2292L6.35421 8.72917C6.31254 8.88195 6.28476 9.02431 6.27087 9.15625C6.25699 9.2882 6.25004 9.43056 6.25004 9.58333C6.25004 10.625 6.61462 11.5104 7.34379 12.2396C8.07296 12.9688 8.95837 13.3333 10 13.3333ZM16.0834 13.7083L13.4375 11.0833C13.5348 10.8472 13.6112 10.6076 13.6667 10.3646C13.7223 10.1215 13.75 9.86111 13.75 9.58333C13.75 8.54167 13.3855 7.65625 12.6563 6.92708C11.9271 6.19792 11.0417 5.83333 10 5.83333C9.72226 5.83333 9.46185 5.86111 9.21879 5.91667C8.97574 5.97222 8.73615 6.05556 8.50004 6.16667L6.37504 4.04167C6.94449 3.80556 7.52782 3.62847 8.12504 3.51042C8.72226 3.39236 9.34726 3.33333 10 3.33333C12.0973 3.33333 13.9653 3.9132 15.6042 5.07292C17.2431 6.23264 18.4306 7.73611 19.1667 9.58333C18.8473 10.4028 18.4271 11.1632 17.9063 11.8646C17.3855 12.566 16.7778 13.1806 16.0834 13.7083ZM12.2292 9.875L9.72921 7.375C10.1181 7.30556 10.4757 7.33681 10.8021 7.46875C11.1285 7.6007 11.4098 7.79167 11.6459 8.04167C11.882 8.29167 12.0521 8.57986 12.1563 8.90625C12.2605 9.23264 12.2848 9.55556 12.2292 9.875Z" fill="currentColor"/>
</svg>
