<svg width="20" height="21" viewBox="0 0 20 21" fill="none" xmlns="http://www.w3.org/2000/svg">
<path d="M16.5007 19.3335L13.0007 15.8752C12.5145 16.0279 12.025 16.1425 11.5319 16.2189C11.0388 16.2953 10.5284 16.3335 10.0007 16.3335C7.90343 16.3335 6.03537 15.7536 4.39648 14.5939C2.7576 13.4342 1.5701 11.9307 0.833984 10.0835C1.12565 9.34739 1.49371 8.66336 1.93815 8.03141C2.3826 7.39947 2.88954 6.8335 3.45898 6.3335L1.16732 4.00016L2.33398 2.8335L17.6673 18.1668L16.5007 19.3335ZM10.0007 13.8335C10.1534 13.8335 10.2958 13.8266 10.4277 13.8127C10.5597 13.7988 10.702 13.771 10.8548 13.7293L6.35482 9.22933C6.31315 9.38211 6.28537 9.52447 6.27148 9.65641C6.2576 9.78836 6.25065 9.93072 6.25065 10.0835C6.25065 11.1252 6.61523 12.0106 7.3444 12.7397C8.07357 13.4689 8.95898 13.8335 10.0007 13.8335ZM16.084 14.2085L13.4382 11.5835C13.5354 11.3474 13.6118 11.1078 13.6673 10.8647C13.7229 10.6217 13.7507 10.3613 13.7507 10.0835C13.7507 9.04183 13.3861 8.15641 12.6569 7.42725C11.9277 6.69808 11.0423 6.3335 10.0007 6.3335C9.72287 6.3335 9.46246 6.36127 9.2194 6.41683C8.97635 6.47239 8.73676 6.55572 8.50065 6.66683L6.37565 4.54183C6.9451 4.30572 7.52843 4.12864 8.12565 4.01058C8.72287 3.89252 9.34787 3.8335 10.0007 3.8335C12.0979 3.8335 13.9659 4.41336 15.6048 5.57308C17.2437 6.7328 18.4312 8.23627 19.1673 10.0835C18.8479 10.9029 18.4277 11.6634 17.9069 12.3647C17.3861 13.0661 16.7784 13.6807 16.084 14.2085ZM12.2298 10.3752L9.72982 7.87516C10.1187 7.80572 10.4763 7.83697 10.8027 7.96891C11.1291 8.10086 11.4104 8.29183 11.6465 8.54183C11.8826 8.79183 12.0527 9.08002 12.1569 9.40641C12.2611 9.7328 12.2854 10.0557 12.2298 10.3752Z" fill="#6D6D6D"/>
</svg>
