<svg width="20" height="20" viewBox="0 0 20 20" fill="none" xmlns="http://www.w3.org/2000/svg">
<path d="M5.87504 7.25259C5.95244 7.33007 6.04434 7.39154 6.14551 7.43347C6.24667 7.47541 6.35511 7.49699 6.46462 7.49699C6.57414 7.49699 6.68258 7.47541 6.78374 7.43347C6.88491 7.39154 6.97681 7.33007 7.05421 7.25259L9.16671 5.13926V12.5001C9.16671 12.7211 9.2545 12.9331 9.41079 13.0893C9.56707 13.2456 9.77903 13.3334 10 13.3334C10.2211 13.3334 10.433 13.2456 10.5893 13.0893C10.7456 12.9331 10.8334 12.7211 10.8334 12.5001V5.13926L12.9467 7.25259C13.0241 7.32996 13.116 7.39132 13.2172 7.43317C13.3183 7.47502 13.4267 7.49655 13.5362 7.49651C13.6456 7.49647 13.754 7.47487 13.8551 7.43295C13.9562 7.39103 14.0481 7.3296 14.1255 7.25217C14.2028 7.17475 14.2642 7.08284 14.306 6.9817C14.3479 6.88056 14.3694 6.77217 14.3694 6.66271C14.3693 6.55325 14.3477 6.44488 14.3058 6.34377C14.2639 6.24266 14.2025 6.15079 14.125 6.07342L10.5892 2.53842C10.4329 2.3822 10.221 2.29443 10 2.29443C9.77907 2.29443 9.56715 2.3822 9.41087 2.53842L5.87504 6.07342C5.79756 6.15082 5.73609 6.24272 5.69416 6.34389C5.65222 6.44505 5.63064 6.55349 5.63064 6.66301C5.63064 6.77252 5.65222 6.88096 5.69416 6.98212C5.73609 7.08329 5.79756 7.17519 5.87504 7.25259ZM15.8334 17.5001C16.0544 17.5001 16.2663 17.4123 16.4226 17.256C16.5789 17.0997 16.6667 16.8878 16.6667 16.6668C16.6667 16.4457 16.5789 16.2338 16.4226 16.0775C16.2663 15.9212 16.0544 15.8334 15.8334 15.8334H4.16671C3.94569 15.8334 3.73373 15.9212 3.57745 16.0775C3.42117 16.2338 3.33337 16.4457 3.33337 16.6668C3.33337 16.8878 3.42117 17.0997 3.57745 17.256C3.73373 17.4123 3.94569 17.5001 4.16671 17.5001H15.8334Z" fill="#FF525E"/>
</svg>
