<svg width="84" height="48" viewBox="0 0 84 48" fill="none" xmlns="http://www.w3.org/2000/svg">
<g clip-path="url(#clip0_1912_74)">
<path d="M17.9815 27.1766C15.8086 26.4812 14.2051 25.1295 13.1709 23.1217C12.1366 21.1139 11.9673 19.0235 12.6627 16.8506L15.1663 9.02826L22.9887 11.5318L34.672 -24.9726L37.3314 -19.8096L42.4944 -22.4691L45.1538 -17.3061L50.3168 -19.9655L52.9762 -14.8025L58.1391 -17.4619L60.7985 -12.2989L65.9615 -14.9583L68.6209 -9.79536L73.7839 -12.4548L59.597 31.8721C58.9016 34.045 57.5499 35.6485 55.5421 36.6827C53.5343 37.7169 51.4439 37.8863 49.271 37.1909L17.9815 27.1766ZM50.9401 31.976C51.6789 32.2124 52.3781 32.1607 53.0378 31.8209C53.6975 31.4811 54.1456 30.9418 54.3821 30.203L66.0654 -6.30143L37.3833 -15.4812L28.2036 13.2009L51.6707 20.7116L49.1671 28.534C48.9307 29.2728 48.9824 29.972 49.3222 30.6317C49.662 31.2914 50.2013 31.7395 50.9401 31.976ZM36.6527 -4.21682L38.3218 -9.43174L53.9665 -4.4246L52.2975 0.790322L36.6527 -4.21682ZM34.1491 3.60556L35.8182 -1.60936L51.4629 3.39778L49.7939 8.61271L34.1491 3.60556ZM57.5124 2.45937C56.7736 2.22292 56.2343 1.77484 55.8945 1.11513C55.5547 0.455413 55.503 -0.243835 55.7395 -0.982615C55.9759 -1.7214 56.424 -2.26069 57.0837 -2.60051C57.7434 -2.94032 58.4427 -2.992 59.1814 -2.75555C59.9202 -2.5191 60.4595 -2.07102 60.7993 -1.41131C61.1391 -0.751595 61.1908 -0.052348 60.9544 0.686433C60.7179 1.42521 60.2698 1.96451 59.6101 2.30432C58.9504 2.64414 58.2512 2.69582 57.5124 2.45937ZM55.0088 10.2818C54.27 10.0453 53.7307 9.59722 53.3909 8.93751C53.0511 8.2778 52.9994 7.57855 53.2359 6.83977C53.4723 6.10099 53.9204 5.56169 54.5801 5.22188C55.2398 4.88207 55.9391 4.83038 56.6779 5.06683C57.4166 5.30328 57.9559 5.75136 58.2958 6.41108C58.6356 7.07079 58.6873 7.77004 58.4508 8.50882C58.2144 9.2476 57.7663 9.78689 57.1066 10.1267C56.4468 10.4665 55.7476 10.5182 55.0088 10.2818ZM19.6506 21.9617L43.1177 29.4724L44.7868 24.2575L18.7121 15.9122L17.8776 18.5197C17.6412 19.2585 17.6929 19.9577 18.0327 20.6174C18.3725 21.2772 18.9118 21.7252 19.6506 21.9617Z" fill="#FF525E"/>
</g>
<defs>
<clipPath id="clip0_1912_74">
<rect width="65.706" height="65.706" fill="white" transform="translate(20.6964 -35.1946) rotate(17.7474)"/>
</clipPath>
</defs>
</svg>
