<svg width="56" height="48" viewBox="0 0 56 48" fill="none" xmlns="http://www.w3.org/2000/svg">
<g clip-path="url(#clip0_1912_117)">
<path d="M18.1765 27.1766C16.0036 26.4812 14.4 25.1295 13.3658 23.1217C12.3316 21.1139 12.1622 19.0235 12.8576 16.8506L15.3612 9.02826L23.1836 11.5318L34.8669 -24.9726L37.5263 -19.8096L42.6893 -22.4691L45.3487 -17.3061L50.5117 -19.9655L53.1711 -14.8025L58.3341 -17.4619L60.9935 -12.2989L66.1565 -14.9583L68.8159 -9.79536L73.9788 -12.4548L59.7919 31.8721C59.0965 34.045 57.7449 35.6485 55.737 36.6827C53.7292 37.7169 51.6389 37.8863 49.466 37.1909L18.1765 27.1766ZM51.135 31.976C51.8738 32.2124 52.5731 32.1607 53.2328 31.8209C53.8925 31.4811 54.3406 30.9418 54.577 30.203L66.2604 -6.30143L37.5783 -15.4812L28.3985 13.2009L51.8657 20.7116L49.3621 28.534C49.1256 29.2728 49.1773 29.972 49.5171 30.6317C49.857 31.2914 50.3963 31.7395 51.135 31.976ZM36.8477 -4.21682L38.5167 -9.43174L54.1615 -4.4246L52.4924 0.790322L36.8477 -4.21682ZM34.3441 3.60556L36.0131 -1.60936L51.6579 3.39778L49.9888 8.61271L34.3441 3.60556ZM57.7073 2.45937C56.9686 2.22292 56.4293 1.77484 56.0894 1.11513C55.7496 0.455413 55.698 -0.243835 55.9344 -0.982615C56.1708 -1.7214 56.6189 -2.26069 57.2786 -2.60051C57.9384 -2.94032 58.6376 -2.992 59.3764 -2.75555C60.1152 -2.5191 60.6545 -2.07102 60.9943 -1.41131C61.3341 -0.751595 61.3858 -0.052348 61.1493 0.686433C60.9129 1.42521 60.4648 1.96451 59.8051 2.30432C59.1454 2.64414 58.4461 2.69582 57.7073 2.45937ZM55.2038 10.2818C54.465 10.0453 53.9257 9.59722 53.5859 8.93751C53.2461 8.2778 53.1944 7.57855 53.4308 6.83977C53.6673 6.10099 54.1154 5.56169 54.7751 5.22188C55.4348 4.88207 56.134 4.83038 56.8728 5.06683C57.6116 5.30328 58.1509 5.75136 58.4907 6.41108C58.8305 7.07079 58.8822 7.77004 58.6457 8.50882C58.4093 9.2476 57.9612 9.78689 57.3015 10.1267C56.6418 10.4665 55.9425 10.5182 55.2038 10.2818ZM19.8455 21.9617L43.3127 29.4724L44.9817 24.2575L18.9071 15.9122L18.0726 18.5197C17.8361 19.2585 17.8878 19.9577 18.2276 20.6174C18.5674 21.2772 19.1067 21.7252 19.8455 21.9617Z" fill="#FF525E"/>
</g>
<defs>
<clipPath id="clip0_1912_117">
<rect width="65.706" height="65.706" fill="white" transform="translate(20.8914 -35.1946) rotate(17.7474)"/>
</clipPath>
</defs>
</svg>
