<svg width="83" height="48" viewBox="0 0 83 48" fill="none" xmlns="http://www.w3.org/2000/svg">
<g clip-path="url(#clip0_1912_70)">
<path d="M17.3942 27.1766C15.2213 26.4812 13.6178 25.1295 12.5836 23.1217C11.5494 21.1139 11.38 19.0235 12.0754 16.8506L14.579 9.02826L22.4014 11.5318L34.0847 -24.9726L36.7441 -19.8096L41.9071 -22.4691L44.5665 -17.3061L49.7295 -19.9655L52.3889 -14.8025L57.5519 -17.4619L60.2113 -12.2989L65.3742 -14.9583L68.0336 -9.79536L73.1966 -12.4548L59.0097 31.8721C58.3143 34.045 56.9626 35.6485 54.9548 36.6827C52.947 37.7169 50.8566 37.8863 48.6838 37.1909L17.3942 27.1766ZM50.3528 31.976C51.0916 32.2124 51.7908 32.1607 52.4505 31.8209C53.1103 31.4811 53.5583 30.9418 53.7948 30.203L65.4781 -6.30143L36.7961 -15.4812L27.6163 13.2009L51.0834 20.7116L48.5799 28.534C48.3434 29.2728 48.3951 29.972 48.7349 30.6317C49.0747 31.2914 49.614 31.7395 50.3528 31.976ZM36.0654 -4.21682L37.7345 -9.43174L53.3792 -4.4246L51.7102 0.790322L36.0654 -4.21682ZM33.5619 3.60556L35.2309 -1.60936L50.8757 3.39778L49.2066 8.61271L33.5619 3.60556ZM56.9251 2.45937C56.1863 2.22292 55.647 1.77484 55.3072 1.11513C54.9674 0.455413 54.9157 -0.243835 55.1522 -0.982615C55.3886 -1.7214 55.8367 -2.26069 56.4964 -2.60051C57.1561 -2.94032 57.8554 -2.992 58.5942 -2.75555C59.3329 -2.5191 59.8722 -2.07102 60.2121 -1.41131C60.5519 -0.751595 60.6035 -0.052348 60.3671 0.686433C60.1306 1.42521 59.6826 1.96451 59.0229 2.30432C58.3631 2.64414 57.6639 2.69582 56.9251 2.45937ZM54.4215 10.2818C53.6828 10.0453 53.1435 9.59722 52.8036 8.93751C52.4638 8.2778 52.4122 7.57855 52.6486 6.83977C52.8851 6.10099 53.3331 5.56169 53.9928 5.22188C54.6526 4.88207 55.3518 4.83038 56.0906 5.06683C56.8294 5.30328 57.3687 5.75136 57.7085 6.41108C58.0483 7.07079 58.1 7.77004 57.8635 8.50882C57.6271 9.2476 57.179 9.78689 56.5193 10.1267C55.8596 10.4665 55.1603 10.5182 54.4215 10.2818ZM19.0633 21.9617L42.5304 29.4724L44.1995 24.2575L18.1249 15.9122L17.2903 18.5197C17.0539 19.2585 17.1056 19.9577 17.4454 20.6174C17.7852 21.2772 18.3245 21.7252 19.0633 21.9617Z" fill="#FF525E"/>
</g>
<defs>
<clipPath id="clip0_1912_70">
<rect width="65.706" height="65.706" fill="white" transform="translate(20.1091 -35.1946) rotate(17.7474)"/>
</clipPath>
</defs>
</svg>
