<svg width="83" height="59" viewBox="0 0 83 59" fill="none" xmlns="http://www.w3.org/2000/svg">
<g clip-path="url(#clip0_1912_122)">
<path d="M17.3829 62.7843C15.21 62.0888 13.6064 60.7372 12.5722 58.7294C11.538 56.7216 11.3686 54.6312 12.0641 52.4583L14.5676 44.6359L22.39 47.1395L34.0734 10.635L36.7328 15.798L41.8957 13.1386L44.5551 18.3016L49.7181 15.6422L52.3775 20.8052L57.5405 18.1458L60.1999 23.3087L65.3629 20.6493L68.0223 25.8123L73.1853 23.1529L58.9984 67.4797C58.3029 69.6526 56.9513 71.2562 54.9435 72.2904C52.9356 73.3246 50.8453 73.494 48.6724 72.7986L17.3829 62.7843ZM50.3415 67.5836C51.0802 67.8201 51.7795 67.7684 52.4392 67.4286C53.0989 67.0888 53.547 66.5495 53.7834 65.8107L65.4668 29.3062L36.7847 20.1265L27.6049 48.8085L51.0721 56.3193L48.5685 64.1417C48.3321 64.8804 48.3837 65.5797 48.7236 66.2394C49.0634 66.8991 49.6027 67.3472 50.3415 67.5836ZM36.0541 31.3908L37.7231 26.1759L53.3679 31.1831L51.6988 36.398L36.0541 31.3908ZM33.5505 39.2132L35.2195 33.9983L50.8643 39.0055L49.1953 44.2204L33.5505 39.2132ZM56.9138 38.067C56.175 37.8306 55.6357 37.3825 55.2959 36.7228C54.9561 36.0631 54.9044 35.3638 55.1408 34.6251C55.3773 33.8863 55.8254 33.347 56.4851 33.0072C57.1448 32.6673 57.844 32.6157 58.5828 32.8521C59.3216 33.0886 59.8609 33.5366 60.2007 34.1964C60.5405 34.8561 60.5922 35.5553 60.3557 36.2941C60.1193 37.0329 59.6712 37.5722 59.0115 37.912C58.3518 38.2518 57.6525 38.3035 56.9138 38.067ZM54.4102 45.8894C53.6714 45.653 53.1321 45.2049 52.7923 44.5452C52.4525 43.8855 52.4008 43.1862 52.6372 42.4474C52.8737 41.7087 53.3218 41.1694 53.9815 40.8295C54.6412 40.4897 55.3405 40.438 56.0792 40.6745C56.818 40.9109 57.3573 41.359 57.6971 42.0187C58.0369 42.6785 58.0886 43.3777 57.8522 44.1165C57.6157 44.8553 57.1676 45.3946 56.5079 45.7344C55.8482 46.0742 55.149 46.1259 54.4102 45.8894ZM19.0519 57.5693L42.5191 65.0801L44.1881 59.8651L18.1135 51.5199L17.279 54.1274C17.0425 54.8661 17.0942 55.5654 17.434 56.2251C17.7738 56.8848 18.3131 57.3329 19.0519 57.5693Z" fill="#FF525E"/>
</g>
<defs>
<clipPath id="clip0_1912_122">
<rect width="65.706" height="65.706" fill="white" transform="translate(20.0978 0.413025) rotate(17.7474)"/>
</clipPath>
</defs>
</svg>
