<svg width="84" height="48" viewBox="0 0 84 48" fill="none" xmlns="http://www.w3.org/2000/svg">
<g clip-path="url(#clip0_1912_72)">
<path d="M18.1879 27.1766C16.015 26.4812 14.4115 25.1295 13.3773 23.1217C12.3431 21.1139 12.1737 19.0235 12.8691 16.8506L15.3727 9.02826L23.1951 11.5318L34.8784 -24.9726L37.5378 -19.8096L42.7008 -22.4691L45.3602 -17.3061L50.5232 -19.9655L53.1826 -14.8025L58.3456 -17.4619L61.005 -12.2989L66.1679 -14.9583L68.8273 -9.79536L73.9903 -12.4548L59.8034 31.8721C59.108 34.045 57.7563 35.6485 55.7485 36.6827C53.7407 37.7169 51.6503 37.8863 49.4775 37.1909L18.1879 27.1766ZM51.1465 31.976C51.8853 32.2124 52.5845 32.1607 53.2442 31.8209C53.904 31.4811 54.352 30.9418 54.5885 30.203L66.2718 -6.30143L37.5898 -15.4812L28.41 13.2009L51.8771 20.7116L49.3736 28.534C49.1371 29.2728 49.1888 29.972 49.5286 30.6317C49.8684 31.2914 50.4077 31.7395 51.1465 31.976ZM36.8591 -4.21682L38.5282 -9.43174L54.1729 -4.4246L52.5039 0.790322L36.8591 -4.21682ZM34.3556 3.60556L36.0246 -1.60936L51.6694 3.39778L50.0003 8.61271L34.3556 3.60556ZM57.7188 2.45937C56.98 2.22292 56.4407 1.77484 56.1009 1.11513C55.7611 0.455413 55.7094 -0.243835 55.9459 -0.982615C56.1823 -1.7214 56.6304 -2.26069 57.2901 -2.60051C57.9498 -2.94032 58.6491 -2.992 59.3879 -2.75555C60.1266 -2.5191 60.6659 -2.07102 61.0058 -1.41131C61.3456 -0.751595 61.3972 -0.052348 61.1608 0.686433C60.9243 1.42521 60.4763 1.96451 59.8166 2.30432C59.1568 2.64414 58.4576 2.69582 57.7188 2.45937ZM55.2152 10.2818C54.4765 10.0453 53.9372 9.59722 53.5973 8.93751C53.2575 8.2778 53.2059 7.57855 53.4423 6.83977C53.6788 6.10099 54.1268 5.56169 54.7865 5.22188C55.4463 4.88207 56.1455 4.83038 56.8843 5.06683C57.6231 5.30328 58.1624 5.75136 58.5022 6.41108C58.842 7.07079 58.8937 7.77004 58.6572 8.50882C58.4208 9.2476 57.9727 9.78689 57.313 10.1267C56.6533 10.4665 55.954 10.5182 55.2152 10.2818ZM19.857 21.9617L43.3241 29.4724L44.9932 24.2575L18.9186 15.9122L18.084 18.5197C17.8476 19.2585 17.8993 19.9577 18.2391 20.6174C18.5789 21.2772 19.1182 21.7252 19.857 21.9617Z" fill="#FF525E"/>
</g>
<defs>
<clipPath id="clip0_1912_72">
<rect width="65.706" height="65.706" fill="white" transform="translate(20.9028 -35.1946) rotate(17.7474)"/>
</clipPath>
</defs>
</svg>
