<svg width="83" height="59" viewBox="0 0 83 59" fill="none" xmlns="http://www.w3.org/2000/svg">
<g clip-path="url(#clip0_1912_120)">
<path d="M17.5892 62.7843C15.4163 62.0888 13.8127 60.7372 12.7785 58.7294C11.7443 56.7216 11.5749 54.6312 12.2704 52.4583L14.7739 44.6359L22.5963 47.1395L34.2797 10.635L36.9391 15.798L42.102 13.1386L44.7614 18.3016L49.9244 15.6422L52.5838 20.8052L57.7468 18.1458L60.4062 23.3087L65.5692 20.6493L68.2286 25.8123L73.3916 23.1529L59.2047 67.4797C58.5092 69.6526 57.1576 71.2562 55.1498 72.2904C53.1419 73.3246 51.0516 73.494 48.8787 72.7986L17.5892 62.7843ZM50.5478 67.5836C51.2865 67.8201 51.9858 67.7684 52.6455 67.4286C53.3052 67.0888 53.7533 66.5495 53.9897 65.8107L65.6731 29.3062L36.991 20.1265L27.8112 48.8085L51.2784 56.3193L48.7748 64.1417C48.5384 64.8804 48.59 65.5797 48.9299 66.2394C49.2697 66.8991 49.809 67.3472 50.5478 67.5836ZM36.2604 31.3908L37.9294 26.1759L53.5742 31.1831L51.9051 36.398L36.2604 31.3908ZM33.7568 39.2132L35.4258 33.9983L51.0706 39.0055L49.4016 44.2204L33.7568 39.2132ZM57.1201 38.067C56.3813 37.8306 55.842 37.3825 55.5022 36.7228C55.1624 36.0631 55.1107 35.3638 55.3471 34.6251C55.5836 33.8863 56.0317 33.347 56.6914 33.0072C57.3511 32.6673 58.0503 32.6157 58.7891 32.8521C59.5279 33.0886 60.0672 33.5366 60.407 34.1964C60.7468 34.8561 60.7985 35.5553 60.562 36.2941C60.3256 37.0329 59.8775 37.5722 59.2178 37.912C58.5581 38.2518 57.8588 38.3035 57.1201 38.067ZM54.6165 45.8894C53.8777 45.653 53.3384 45.2049 52.9986 44.5452C52.6588 43.8855 52.6071 43.1862 52.8435 42.4474C53.08 41.7087 53.5281 41.1694 54.1878 40.8295C54.8475 40.4897 55.5468 40.438 56.2855 40.6745C57.0243 40.9109 57.5636 41.359 57.9034 42.0187C58.2432 42.6785 58.2949 43.3777 58.0585 44.1165C57.822 44.8553 57.3739 45.3946 56.7142 45.7344C56.0545 46.0742 55.3553 46.1259 54.6165 45.8894ZM19.2582 57.5693L42.7254 65.0801L44.3944 59.8651L18.3198 51.5199L17.4853 54.1274C17.2488 54.8661 17.3005 55.5654 17.6403 56.2251C17.9801 56.8848 18.5194 57.3329 19.2582 57.5693Z" fill="#FF525E"/>
</g>
<defs>
<clipPath id="clip0_1912_120">
<rect width="65.706" height="65.706" fill="white" transform="translate(20.3041 0.413025) rotate(17.7474)"/>
</clipPath>
</defs>
</svg>
