<svg width="56" height="59" viewBox="0 0 56 59" fill="none" xmlns="http://www.w3.org/2000/svg">
<g clip-path="url(#clip0_1912_124)">
<path d="M18.1765 62.7843C16.0036 62.0888 14.4 60.7372 13.3658 58.7294C12.3316 56.7216 12.1622 54.6312 12.8576 52.4583L15.3612 44.6359L23.1836 47.1395L34.8669 10.635L37.5263 15.798L42.6893 13.1386L45.3487 18.3016L50.5117 15.6422L53.1711 20.8052L58.3341 18.1458L60.9935 23.3087L66.1565 20.6493L68.8159 25.8123L73.9788 23.1529L59.7919 67.4797C59.0965 69.6526 57.7449 71.2562 55.737 72.2904C53.7292 73.3246 51.6389 73.494 49.466 72.7986L18.1765 62.7843ZM51.135 67.5836C51.8738 67.8201 52.5731 67.7684 53.2328 67.4286C53.8925 67.0888 54.3406 66.5495 54.577 65.8107L66.2604 29.3062L37.5783 20.1265L28.3985 48.8085L51.8657 56.3193L49.3621 64.1417C49.1256 64.8804 49.1773 65.5797 49.5171 66.2394C49.857 66.8991 50.3963 67.3472 51.135 67.5836ZM36.8477 31.3908L38.5167 26.1759L54.1615 31.1831L52.4924 36.398L36.8477 31.3908ZM34.3441 39.2132L36.0131 33.9983L51.6579 39.0055L49.9888 44.2204L34.3441 39.2132ZM57.7073 38.067C56.9686 37.8306 56.4293 37.3825 56.0894 36.7228C55.7496 36.0631 55.698 35.3638 55.9344 34.6251C56.1708 33.8863 56.6189 33.347 57.2786 33.0072C57.9384 32.6673 58.6376 32.6157 59.3764 32.8521C60.1152 33.0886 60.6545 33.5366 60.9943 34.1964C61.3341 34.8561 61.3858 35.5553 61.1493 36.2941C60.9129 37.0329 60.4648 37.5722 59.8051 37.912C59.1454 38.2518 58.4461 38.3035 57.7073 38.067ZM55.2038 45.8894C54.465 45.653 53.9257 45.2049 53.5859 44.5452C53.2461 43.8855 53.1944 43.1862 53.4308 42.4474C53.6673 41.7087 54.1154 41.1694 54.7751 40.8295C55.4348 40.4897 56.134 40.438 56.8728 40.6745C57.6116 40.9109 58.1509 41.359 58.4907 42.0187C58.8305 42.6785 58.8822 43.3777 58.6457 44.1165C58.4093 44.8553 57.9612 45.3946 57.3015 45.7344C56.6418 46.0742 55.9425 46.1259 55.2038 45.8894ZM19.8455 57.5693L43.3127 65.0801L44.9817 59.8651L18.9071 51.5199L18.0726 54.1274C17.8361 54.8661 17.8878 55.5654 18.2276 56.2251C18.5674 56.8848 19.1067 57.3329 19.8455 57.5693Z" fill="#FF525E"/>
</g>
<defs>
<clipPath id="clip0_1912_124">
<rect width="65.706" height="65.706" fill="white" transform="translate(20.8914 0.413025) rotate(17.7474)"/>
</clipPath>
</defs>
</svg>
