<svg width="84" height="59" viewBox="0 0 84 59" fill="none" xmlns="http://www.w3.org/2000/svg">
<g clip-path="url(#clip0_1912_81)">
<path d="M17.9815 62.7843C15.8086 62.0888 14.2051 60.7372 13.1709 58.7294C12.1366 56.7216 11.9673 54.6312 12.6627 52.4583L15.1663 44.6359L22.9887 47.1395L34.672 10.635L37.3314 15.798L42.4944 13.1386L45.1538 18.3016L50.3168 15.6422L52.9762 20.8052L58.1391 18.1458L60.7985 23.3087L65.9615 20.6493L68.6209 25.8123L73.7839 23.1529L59.597 67.4797C58.9016 69.6526 57.5499 71.2562 55.5421 72.2904C53.5343 73.3246 51.4439 73.494 49.271 72.7986L17.9815 62.7843ZM50.9401 67.5836C51.6789 67.8201 52.3781 67.7684 53.0378 67.4286C53.6975 67.0888 54.1456 66.5495 54.3821 65.8107L66.0654 29.3062L37.3833 20.1265L28.2036 48.8085L51.6707 56.3193L49.1671 64.1417C48.9307 64.8804 48.9824 65.5797 49.3222 66.2394C49.662 66.8991 50.2013 67.3472 50.9401 67.5836ZM36.6527 31.3908L38.3218 26.1759L53.9665 31.1831L52.2975 36.398L36.6527 31.3908ZM34.1491 39.2132L35.8182 33.9983L51.4629 39.0055L49.7939 44.2204L34.1491 39.2132ZM57.5124 38.067C56.7736 37.8306 56.2343 37.3825 55.8945 36.7228C55.5547 36.0631 55.503 35.3638 55.7395 34.6251C55.9759 33.8863 56.424 33.347 57.0837 33.0072C57.7434 32.6673 58.4427 32.6157 59.1814 32.8521C59.9202 33.0886 60.4595 33.5366 60.7993 34.1964C61.1391 34.8561 61.1908 35.5553 60.9544 36.2941C60.7179 37.0329 60.2698 37.5722 59.6101 37.912C58.9504 38.2518 58.2512 38.3035 57.5124 38.067ZM55.0088 45.8894C54.27 45.653 53.7307 45.2049 53.3909 44.5452C53.0511 43.8855 52.9994 43.1862 53.2359 42.4474C53.4723 41.7087 53.9204 41.1694 54.5801 40.8295C55.2398 40.4897 55.9391 40.438 56.6779 40.6745C57.4166 40.9109 57.9559 41.359 58.2958 42.0187C58.6356 42.6785 58.6873 43.3777 58.4508 44.1165C58.2144 44.8553 57.7663 45.3946 57.1066 45.7344C56.4468 46.0742 55.7476 46.1259 55.0088 45.8894ZM19.6506 57.5693L43.1177 65.0801L44.7868 59.8651L18.7121 51.5199L17.8776 54.1274C17.6412 54.8661 17.6929 55.5654 18.0327 56.2251C18.3725 56.8848 18.9118 57.3329 19.6506 57.5693Z" fill="#FF525E"/>
</g>
<defs>
<clipPath id="clip0_1912_81">
<rect width="65.706" height="65.706" fill="white" transform="translate(20.6964 0.413025) rotate(17.7474)"/>
</clipPath>
</defs>
</svg>
