<svg width="83" height="48" viewBox="0 0 83 48" fill="none" xmlns="http://www.w3.org/2000/svg">
<g clip-path="url(#clip0_1912_115)">
<path d="M17.3829 27.1766C15.21 26.4812 13.6064 25.1295 12.5722 23.1217C11.538 21.1139 11.3686 19.0235 12.0641 16.8506L14.5676 9.02826L22.39 11.5318L34.0734 -24.9726L36.7328 -19.8096L41.8957 -22.4691L44.5551 -17.3061L49.7181 -19.9655L52.3775 -14.8025L57.5405 -17.4619L60.1999 -12.2989L65.3629 -14.9583L68.0223 -9.79536L73.1853 -12.4548L58.9984 31.8721C58.3029 34.045 56.9513 35.6485 54.9435 36.6827C52.9356 37.7169 50.8453 37.8863 48.6724 37.1909L17.3829 27.1766ZM50.3415 31.976C51.0802 32.2124 51.7795 32.1607 52.4392 31.8209C53.0989 31.4811 53.547 30.9418 53.7834 30.203L65.4668 -6.30143L36.7847 -15.4812L27.6049 13.2009L51.0721 20.7116L48.5685 28.534C48.3321 29.2728 48.3837 29.972 48.7236 30.6317C49.0634 31.2914 49.6027 31.7395 50.3415 31.976ZM36.0541 -4.21682L37.7231 -9.43174L53.3679 -4.4246L51.6988 0.790322L36.0541 -4.21682ZM33.5505 3.60556L35.2195 -1.60936L50.8643 3.39778L49.1953 8.61271L33.5505 3.60556ZM56.9138 2.45937C56.175 2.22292 55.6357 1.77484 55.2959 1.11513C54.9561 0.455413 54.9044 -0.243835 55.1408 -0.982615C55.3773 -1.7214 55.8254 -2.26069 56.4851 -2.60051C57.1448 -2.94032 57.844 -2.992 58.5828 -2.75555C59.3216 -2.5191 59.8609 -2.07102 60.2007 -1.41131C60.5405 -0.751595 60.5922 -0.052348 60.3557 0.686433C60.1193 1.42521 59.6712 1.96451 59.0115 2.30432C58.3518 2.64414 57.6525 2.69582 56.9138 2.45937ZM54.4102 10.2818C53.6714 10.0453 53.1321 9.59722 52.7923 8.93751C52.4525 8.2778 52.4008 7.57855 52.6372 6.83977C52.8737 6.10099 53.3218 5.56169 53.9815 5.22188C54.6412 4.88207 55.3405 4.83038 56.0792 5.06683C56.818 5.30328 57.3573 5.75136 57.6971 6.41108C58.0369 7.07079 58.0886 7.77004 57.8522 8.50882C57.6157 9.2476 57.1676 9.78689 56.5079 10.1267C55.8482 10.4665 55.149 10.5182 54.4102 10.2818ZM19.0519 21.9617L42.5191 29.4724L44.1881 24.2575L18.1135 15.9122L17.279 18.5197C17.0425 19.2585 17.0942 19.9577 17.434 20.6174C17.7738 21.2772 18.3131 21.7252 19.0519 21.9617Z" fill="#FF525E"/>
</g>
<defs>
<clipPath id="clip0_1912_115">
<rect width="65.706" height="65.706" fill="white" transform="translate(20.0978 -35.1946) rotate(17.7474)"/>
</clipPath>
</defs>
</svg>
