<svg width="83" height="59" viewBox="0 0 83 59" fill="none" xmlns="http://www.w3.org/2000/svg">
<g clip-path="url(#clip0_1912_77)">
<path d="M17.3942 62.7843C15.2213 62.0888 13.6178 60.7372 12.5836 58.7294C11.5494 56.7216 11.38 54.6312 12.0754 52.4583L14.579 44.6359L22.4014 47.1395L34.0847 10.635L36.7441 15.798L41.9071 13.1386L44.5665 18.3016L49.7295 15.6422L52.3889 20.8052L57.5519 18.1458L60.2113 23.3087L65.3742 20.6493L68.0336 25.8123L73.1966 23.1529L59.0097 67.4797C58.3143 69.6526 56.9626 71.2562 54.9548 72.2904C52.947 73.3246 50.8566 73.494 48.6838 72.7986L17.3942 62.7843ZM50.3528 67.5836C51.0916 67.8201 51.7908 67.7684 52.4505 67.4286C53.1103 67.0888 53.5583 66.5495 53.7948 65.8107L65.4781 29.3062L36.7961 20.1265L27.6163 48.8085L51.0834 56.3193L48.5799 64.1417C48.3434 64.8804 48.3951 65.5797 48.7349 66.2394C49.0747 66.8991 49.614 67.3472 50.3528 67.5836ZM36.0654 31.3908L37.7345 26.1759L53.3792 31.1831L51.7102 36.398L36.0654 31.3908ZM33.5619 39.2132L35.2309 33.9983L50.8757 39.0055L49.2066 44.2204L33.5619 39.2132ZM56.9251 38.067C56.1863 37.8306 55.647 37.3825 55.3072 36.7228C54.9674 36.0631 54.9157 35.3638 55.1522 34.6251C55.3886 33.8863 55.8367 33.347 56.4964 33.0072C57.1561 32.6673 57.8554 32.6157 58.5942 32.8521C59.3329 33.0886 59.8722 33.5366 60.2121 34.1964C60.5519 34.8561 60.6035 35.5553 60.3671 36.2941C60.1306 37.0329 59.6826 37.5722 59.0229 37.912C58.3631 38.2518 57.6639 38.3035 56.9251 38.067ZM54.4215 45.8894C53.6828 45.653 53.1435 45.2049 52.8036 44.5452C52.4638 43.8855 52.4122 43.1862 52.6486 42.4474C52.8851 41.7087 53.3331 41.1694 53.9928 40.8295C54.6526 40.4897 55.3518 40.438 56.0906 40.6745C56.8294 40.9109 57.3687 41.359 57.7085 42.0187C58.0483 42.6785 58.1 43.3777 57.8635 44.1165C57.6271 44.8553 57.179 45.3946 56.5193 45.7344C55.8596 46.0742 55.1603 46.1259 54.4215 45.8894ZM19.0633 57.5693L42.5304 65.0801L44.1995 59.8651L18.1249 51.5199L17.2903 54.1274C17.0539 54.8661 17.1056 55.5654 17.4454 56.2251C17.7852 56.8848 18.3245 57.3329 19.0633 57.5693Z" fill="#FF525E"/>
</g>
<defs>
<clipPath id="clip0_1912_77">
<rect width="65.706" height="65.706" fill="white" transform="translate(20.1091 0.413025) rotate(17.7474)"/>
</clipPath>
</defs>
</svg>
