<svg width="84" height="59" viewBox="0 0 84 59" fill="none" xmlns="http://www.w3.org/2000/svg">
<g clip-path="url(#clip0_1912_79)">
<path d="M18.1879 62.7843C16.015 62.0888 14.4115 60.7372 13.3773 58.7294C12.3431 56.7216 12.1737 54.6312 12.8691 52.4583L15.3727 44.6359L23.1951 47.1395L34.8784 10.635L37.5378 15.798L42.7008 13.1386L45.3602 18.3016L50.5232 15.6422L53.1826 20.8052L58.3456 18.1458L61.005 23.3087L66.1679 20.6493L68.8273 25.8123L73.9903 23.1529L59.8034 67.4797C59.108 69.6526 57.7563 71.2562 55.7485 72.2904C53.7407 73.3246 51.6503 73.494 49.4775 72.7986L18.1879 62.7843ZM51.1465 67.5836C51.8853 67.8201 52.5845 67.7684 53.2442 67.4286C53.904 67.0888 54.352 66.5495 54.5885 65.8107L66.2718 29.3062L37.5898 20.1265L28.41 48.8085L51.8771 56.3193L49.3736 64.1417C49.1371 64.8804 49.1888 65.5797 49.5286 66.2394C49.8684 66.8991 50.4077 67.3472 51.1465 67.5836ZM36.8591 31.3908L38.5282 26.1759L54.1729 31.1831L52.5039 36.398L36.8591 31.3908ZM34.3556 39.2132L36.0246 33.9983L51.6694 39.0055L50.0003 44.2204L34.3556 39.2132ZM57.7188 38.067C56.98 37.8306 56.4407 37.3825 56.1009 36.7228C55.7611 36.0631 55.7094 35.3638 55.9459 34.6251C56.1823 33.8863 56.6304 33.347 57.2901 33.0072C57.9498 32.6673 58.6491 32.6157 59.3879 32.8521C60.1266 33.0886 60.6659 33.5366 61.0058 34.1964C61.3456 34.8561 61.3972 35.5553 61.1608 36.2941C60.9243 37.0329 60.4763 37.5722 59.8166 37.912C59.1568 38.2518 58.4576 38.3035 57.7188 38.067ZM55.2152 45.8894C54.4765 45.653 53.9372 45.2049 53.5973 44.5452C53.2575 43.8855 53.2059 43.1862 53.4423 42.4474C53.6788 41.7087 54.1268 41.1694 54.7865 40.8295C55.4463 40.4897 56.1455 40.438 56.8843 40.6745C57.6231 40.9109 58.1624 41.359 58.5022 42.0187C58.842 42.6785 58.8937 43.3777 58.6572 44.1165C58.4208 44.8553 57.9727 45.3946 57.313 45.7344C56.6533 46.0742 55.954 46.1259 55.2152 45.8894ZM19.857 57.5693L43.3241 65.0801L44.9932 59.8651L18.9186 51.5199L18.084 54.1274C17.8476 54.8661 17.8993 55.5654 18.2391 56.2251C18.5789 56.8848 19.1182 57.3329 19.857 57.5693Z" fill="#FF525E"/>
</g>
<defs>
<clipPath id="clip0_1912_79">
<rect width="65.706" height="65.706" fill="white" transform="translate(20.9028 0.413025) rotate(17.7474)"/>
</clipPath>
</defs>
</svg>
