<svg width="83" height="48" viewBox="0 0 83 48" fill="none" xmlns="http://www.w3.org/2000/svg">
<g clip-path="url(#clip0_1912_113)">
<path d="M17.5892 27.1766C15.4163 26.4812 13.8127 25.1295 12.7785 23.1217C11.7443 21.1139 11.5749 19.0235 12.2704 16.8506L14.7739 9.02826L22.5963 11.5318L34.2797 -24.9726L36.9391 -19.8096L42.102 -22.4691L44.7614 -17.3061L49.9244 -19.9655L52.5838 -14.8025L57.7468 -17.4619L60.4062 -12.2989L65.5692 -14.9583L68.2286 -9.79536L73.3916 -12.4548L59.2047 31.8721C58.5092 34.045 57.1576 35.6485 55.1498 36.6827C53.1419 37.7169 51.0516 37.8863 48.8787 37.1909L17.5892 27.1766ZM50.5478 31.976C51.2865 32.2124 51.9858 32.1607 52.6455 31.8209C53.3052 31.4811 53.7533 30.9418 53.9897 30.203L65.6731 -6.30143L36.991 -15.4812L27.8112 13.2009L51.2784 20.7116L48.7748 28.534C48.5384 29.2728 48.59 29.972 48.9299 30.6317C49.2697 31.2914 49.809 31.7395 50.5478 31.976ZM36.2604 -4.21682L37.9294 -9.43174L53.5742 -4.4246L51.9051 0.790322L36.2604 -4.21682ZM33.7568 3.60556L35.4258 -1.60936L51.0706 3.39778L49.4016 8.61271L33.7568 3.60556ZM57.1201 2.45937C56.3813 2.22292 55.842 1.77484 55.5022 1.11513C55.1624 0.455413 55.1107 -0.243835 55.3471 -0.982615C55.5836 -1.7214 56.0317 -2.26069 56.6914 -2.60051C57.3511 -2.94032 58.0503 -2.992 58.7891 -2.75555C59.5279 -2.5191 60.0672 -2.07102 60.407 -1.41131C60.7468 -0.751595 60.7985 -0.052348 60.562 0.686433C60.3256 1.42521 59.8775 1.96451 59.2178 2.30432C58.5581 2.64414 57.8588 2.69582 57.1201 2.45937ZM54.6165 10.2818C53.8777 10.0453 53.3384 9.59722 52.9986 8.93751C52.6588 8.2778 52.6071 7.57855 52.8435 6.83977C53.08 6.10099 53.5281 5.56169 54.1878 5.22188C54.8475 4.88207 55.5468 4.83038 56.2855 5.06683C57.0243 5.30328 57.5636 5.75136 57.9034 6.41108C58.2432 7.07079 58.2949 7.77004 58.0585 8.50882C57.822 9.2476 57.3739 9.78689 56.7142 10.1267C56.0545 10.4665 55.3553 10.5182 54.6165 10.2818ZM19.2582 21.9617L42.7254 29.4724L44.3944 24.2575L18.3198 15.9122L17.4853 18.5197C17.2488 19.2585 17.3005 19.9577 17.6403 20.6174C17.9801 21.2772 18.5194 21.7252 19.2582 21.9617Z" fill="#FF525E"/>
</g>
<defs>
<clipPath id="clip0_1912_113">
<rect width="65.706" height="65.706" fill="white" transform="translate(20.3041 -35.1946) rotate(17.7474)"/>
</clipPath>
</defs>
</svg>
