<svg width="20" height="20" viewBox="0 0 20 20" fill="none" xmlns="http://www.w3.org/2000/svg">
<path d="M11.0233 2.24001C10.7308 2.01242 10.3707 1.88885 10 1.88885C9.62933 1.88885 9.26924 2.01242 8.97667 2.24001L1.99 7.67335C1.36333 8.16251 1.70833 9.16668 2.5025 9.16668H3.33333V15.8333C3.33333 16.2754 3.50893 16.6993 3.82149 17.0119C4.13405 17.3244 4.55797 17.5 5 17.5H8.33333V12.5C8.33333 12.058 8.50893 11.6341 8.82149 11.3215C9.13405 11.0089 9.55797 10.8333 10 10.8333C10.442 10.8333 10.866 11.0089 11.1785 11.3215C11.4911 11.6341 11.6667 12.058 11.6667 12.5V17.5H15C15.442 17.5 15.8659 17.3244 16.1785 17.0119C16.4911 16.6993 16.6667 16.2754 16.6667 15.8333V9.16668H17.4975C18.2908 9.16668 18.6375 8.16251 18.01 7.67418L11.0233 2.24001Z" fill="#FF525E"/>
</svg>
