<svg width="83" height="83" viewBox="0 0 83 83" fill="none" xmlns="http://www.w3.org/2000/svg">
<g clip-path="url(#clip0_783_6444)">
<path d="M17.3135 62.3712C15.1407 61.6758 13.5371 60.3242 12.5029 58.3164C11.4687 56.3085 11.2993 54.2182 11.9947 52.0453L14.4983 44.2229L22.3207 46.7265L34.004 10.222L36.6634 15.385L41.8264 12.7256L44.4858 17.8886L49.6488 15.2292L52.3082 20.3921L57.4712 17.7327L60.1306 22.8957L65.2936 20.2363L67.953 25.3993L73.1159 22.7399L58.929 67.0667C58.2336 69.2396 56.882 70.8432 54.8741 71.8774C52.8663 72.9116 50.776 73.081 48.6031 72.3855L17.3135 62.3712ZM50.2721 67.1706C51.0109 67.4071 51.7101 67.3554 52.3699 67.0156C53.0296 66.6757 53.4777 66.1365 53.7141 65.3977L65.3974 28.8932L36.7154 19.7134L27.5356 48.3955L51.0028 55.9062L48.4992 63.7286C48.2627 64.4674 48.3144 65.1667 48.6542 65.8264C48.994 66.4861 49.5333 66.9342 50.2721 67.1706ZM35.9847 30.9778L37.6538 25.7629L53.2985 30.77L51.6295 35.985L35.9847 30.9778ZM33.4812 38.8002L35.1502 33.5853L50.795 38.5924L49.1259 43.8073L33.4812 38.8002ZM56.8444 37.654C56.1056 37.4176 55.5663 36.9695 55.2265 36.3098C54.8867 35.6501 54.835 34.9508 55.0715 34.212C55.3079 33.4732 55.756 32.9339 56.4157 32.5941C57.0754 32.2543 57.7747 32.2026 58.5135 32.4391C59.2523 32.6755 59.7915 33.1236 60.1314 33.7833C60.4712 34.443 60.5229 35.1423 60.2864 35.8811C60.05 36.6199 59.6019 37.1592 58.9422 37.499C58.2824 37.8388 57.5832 37.8905 56.8444 37.654ZM54.3408 45.4764C53.6021 45.2399 53.0628 44.7919 52.723 44.1322C52.3831 43.4724 52.3315 42.7732 52.5679 42.0344C52.8044 41.2956 53.2524 40.7563 53.9122 40.4165C54.5719 40.0767 55.2711 40.025 56.0099 40.2615C56.7487 40.4979 57.288 40.946 57.6278 41.6057C57.9676 42.2654 58.0193 42.9647 57.7828 43.7035C57.5464 44.4422 57.0983 44.9815 56.4386 45.3213C55.7789 45.6612 55.0796 45.7128 54.3408 45.4764ZM18.9826 57.1563L42.4497 64.667L44.1188 59.4521L18.0442 51.1069L17.2097 53.7143C16.9732 54.4531 17.0249 55.1524 17.3647 55.8121C17.7045 56.4718 18.2438 56.9199 18.9826 57.1563Z" fill="#FF525E"/>
</g>
<defs>
<clipPath id="clip0_783_6444">
<rect width="65.706" height="65.706" fill="white" transform="translate(20.0283) rotate(17.7474)"/>
</clipPath>
</defs>
</svg>
